<svg width="237" height="265" viewBox="0 0 237 265" fill="none" xmlns="http://www.w3.org/2000/svg">
<g filter="url(#filter0_d)">
<path d="M130.5 3L182.029 100.5H78.9715L130.5 3Z" fill="black"/>
<path d="M196.529 111L157.764 175L68 111H196.529Z" fill="#18667E"/>
<path d="M66.5285 81L66.5286 158L15 198.75L66.5285 81Z" fill="#20AF6B"/>
<path d="M103 143L103 231H16L103 143Z" fill="#D7620D"/>
<path d="M204 167L226 228.5H139L161.5 179L204 167Z" fill="#D70DAA"/>
</g>
<path d="M237 156C148 102 237 213.5 152.5 264.5C68.0004 264.5 0 239.671 0 156C210.5 122 37.5004 0.5 122 0.5C206.5 0.5 237 72.3289 237 156Z" fill="#C4C4C4" fill-opacity="0.58"/>
<defs>
<filter id="filter0_d" x="11" y="3" width="219" height="236" filterUnits="userSpaceOnUse" color-interpolation-filters="sRGB">
<feFlood flood-opacity="0" result="BackgroundImageFix"/>
<feColorMatrix in="SourceAlpha" type="matrix" values="0 0 0 0 0 0 0 0 0 0 0 0 0 0 0 0 0 0 127 0"/>
<feOffset dy="4"/>
<feGaussianBlur stdDeviation="2"/>
<feColorMatrix type="matrix" values="0 0 0 0 0 0 0 0 0 0 0 0 0 0 0 0 0 0 0.25 0"/>
<feBlend mode="normal" in2="BackgroundImageFix" result="effect1_dropShadow"/>
<feBlend mode="normal" in="SourceGraphic" in2="effect1_dropShadow" result="shape"/>
</filter>
</defs>
</svg>
